# 
# Wavefront OBJ file
# Created with Autodesk FBX SDK
# 
g M
v -28.580590 3.470857 13.855195
v -28.488590 4.147351 13.768708
v -28.580590 4.147351 13.768708
v -28.580590 3.470857 13.855195
v -28.482590 3.997570 13.787857
v -28.488590 4.147351 13.768708
v -28.482590 3.997570 13.787857
v -28.480590 3.997570 13.787857
v -28.488590 4.147351 13.768708
v -28.480590 3.997570 13.787857
v -28.262590 3.869612 13.804216
v -28.488590 4.147351 13.768708
v -28.262590 3.869612 13.804216
v -27.944590 4.147351 13.768708
v -28.035590 4.147351 13.768708
v -28.262590 3.869612 13.804216
v -28.044590 3.997570 13.787857
v -27.944590 4.147351 13.768708
v -28.044590 3.997570 13.787857
v -28.042590 3.997570 13.787857
v -27.944590 4.147351 13.768708
v -28.042590 3.997570 13.787857
v -27.944590 3.470857 13.855195
v -27.944590 4.147351 13.768708
v -28.580590 3.470857 13.855195
v -28.482590 3.470857 13.855195
v -28.482590 3.997570 13.787857
v -28.270590 3.735702 13.821335
v -28.262590 3.869612 13.804216
v -28.480590 3.997570 13.787857
v -28.262590 3.869612 13.804216
v -28.254590 3.735702 13.821335
v -28.044590 3.997570 13.787857
v -28.042590 3.470857 13.855195
v -27.944590 3.470857 13.855195
v -28.042590 3.997570 13.787857
v -28.270590 3.735702 13.821335
v -28.254590 3.735702 13.821335
v -28.262590 3.869612 13.804216
v -28.580590 3.460712 13.775841
v -28.580590 4.137206 13.689354
v -28.488590 4.137206 13.689354
v -28.580590 3.460712 13.775841
v -28.488590 4.137206 13.689354
v -28.482590 3.987425 13.708502
v -28.482590 3.987425 13.708502
v -28.488590 4.137206 13.689354
v -28.480590 3.987425 13.708502
v -28.480590 3.987425 13.708502
v -28.488590 4.137206 13.689354
v -28.262590 3.859467 13.724861
v -28.262590 3.859467 13.724861
v -28.035590 4.137206 13.689354
v -27.944590 4.137206 13.689354
v -28.262590 3.859467 13.724861
v -27.944590 4.137206 13.689354
v -28.044590 3.987425 13.708502
v -28.044590 3.987425 13.708502
v -27.944590 4.137206 13.689354
v -28.042590 3.987425 13.708502
v -28.042590 3.987425 13.708502
v -27.944590 4.137206 13.689354
v -27.944590 3.460712 13.775841
v -28.580590 3.460712 13.775841
v -28.482590 3.987425 13.708502
v -28.482590 3.460712 13.775841
v -28.270590 3.725557 13.741981
v -28.480590 3.987425 13.708502
v -28.262590 3.859467 13.724861
v -28.262590 3.859467 13.724861
v -28.044590 3.987425 13.708502
v -28.254590 3.725557 13.741981
v -28.042590 3.460712 13.775841
v -28.042590 3.987425 13.708502
v -27.944590 3.460712 13.775841
v -28.270590 3.725557 13.741981
v -28.262590 3.859467 13.724861
v -28.254590 3.725557 13.741981
v -28.042590 3.470857 13.855195
v -28.042590 3.997570 13.787857
v -28.042590 3.987425 13.708502
v -28.042590 3.460712 13.775841
v -28.042590 3.997570 13.787857
v -28.044590 3.997570 13.787857
v -28.044590 3.987425 13.708502
v -28.042590 3.987425 13.708502
v -28.044590 3.997570 13.787857
v -28.254590 3.735702 13.821335
v -28.254590 3.725557 13.741981
v -28.044590 3.987425 13.708502
v -28.254590 3.735702 13.821335
v -28.270590 3.735702 13.821335
v -28.270590 3.725557 13.741981
v -28.254590 3.725557 13.741981
v -28.270590 3.735702 13.821335
v -28.480590 3.997570 13.787857
v -28.480590 3.987425 13.708502
v -28.270590 3.725557 13.741981
v -28.480590 3.997570 13.787857
v -28.482590 3.997570 13.787857
v -28.482590 3.987425 13.708502
v -28.480590 3.987425 13.708502
v -28.482590 3.997570 13.787857
v -28.482590 3.470857 13.855195
v -28.482590 3.460712 13.775841
v -28.482590 3.987425 13.708502
v -28.482590 3.470857 13.855195
v -28.580590 3.470857 13.855195
v -28.580590 3.460712 13.775841
v -28.482590 3.460712 13.775841
v -28.580590 3.470857 13.855195
v -28.580590 4.147351 13.768708
v -28.580590 4.137206 13.689354
v -28.580590 3.460712 13.775841
v -28.580590 4.147351 13.768708
v -28.488590 4.147351 13.768708
v -28.488590 4.137206 13.689354
v -28.580590 4.137206 13.689354
v -28.488590 4.147351 13.768708
v -28.262590 3.869612 13.804216
v -28.262590 3.859467 13.724861
v -28.488590 4.137206 13.689354
v -28.262590 3.869612 13.804216
v -28.035590 4.147351 13.768708
v -28.035590 4.137206 13.689354
v -28.262590 3.859467 13.724861
v -28.035590 4.147351 13.768708
v -27.944590 4.147351 13.768708
v -27.944590 4.137206 13.689354
v -28.035590 4.137206 13.689354
v -27.944590 4.147351 13.768708
v -27.944590 3.470857 13.855195
v -27.944590 3.460712 13.775841
v -27.944590 4.137206 13.689354
v -27.944590 3.470857 13.855195
v -28.042590 3.470857 13.855195
v -28.042590 3.460712 13.775841
v -27.944590 3.460712 13.775841
vt 0.571429 0.000000
vt 0.714286 0.000000
vt 0.642857 0.000000
vt 0.428571 0.000000
vt 0.357143 0.000000
vt 0.785714 0.000000
vt 0.928571 0.000000
vt 0.857143 0.000000
vt 0.142857 0.000000
vt 0.071429 0.000000
vt 1.000000 0.000000
vt 0.500000 0.000000
vt 0.285714 0.000000
vt 0.214286 0.000000
vt 0.000000 0.000000
vt 0.571429 0.000000
vt 0.642857 0.000000
vt 0.714286 0.000000
vt 0.428571 0.000000
vt 0.357143 0.000000
vt 0.785714 0.000000
vt 0.857143 0.000000
vt 0.928571 0.000000
vt 0.142857 0.000000
vt 0.071429 0.000000
vt 1.000000 0.000000
vt 0.500000 0.000000
vt 0.285714 0.000000
vt 0.214286 0.000000
vt 0.000000 0.000000
vt 0.000000 1.000000
vt 0.066667 1.000000
vt 0.066667 0.000000
vt 0.000000 0.000000
vt 0.133333 1.000000
vt 0.133333 0.000000
vt 0.200000 1.000000
vt 0.200000 0.000000
vt 0.266667 1.000000
vt 0.266667 0.000000
vt 0.333333 1.000000
vt 0.333333 0.000000
vt 0.400000 1.000000
vt 0.400000 0.000000
vt 0.466667 1.000000
vt 0.466667 0.000000
vt 0.533333 1.000000
vt 0.533333 0.000000
vt 0.600000 1.000000
vt 0.600000 0.000000
vt 0.666667 1.000000
vt 0.666667 0.000000
vt 0.733333 1.000000
vt 0.733333 0.000000
vt 0.800000 1.000000
vt 0.800000 0.000000
vt 0.866667 1.000000
vt 0.866667 0.000000
vt 0.933333 1.000000
vt 0.933333 0.000000
vt 1.000000 1.000000
vt 1.000000 0.000000
vn 0.000000 0.126814 0.991927
vn 0.000000 0.126814 0.991927
vn 0.000000 0.126814 0.991927
vn -0.000000 0.126814 0.991927
vn -0.000000 0.126814 0.991927
vn -0.000000 0.126814 0.991927
vn 0.000000 0.126816 0.991926
vn 0.000000 0.126816 0.991926
vn 0.000000 0.126816 0.991926
vn 0.000000 0.126814 0.991927
vn 0.000000 0.126814 0.991927
vn 0.000000 0.126814 0.991927
vn 0.000000 0.126814 0.991927
vn 0.000000 0.126814 0.991927
vn 0.000000 0.126814 0.991927
vn -0.000000 0.126814 0.991926
vn -0.000000 0.126814 0.991926
vn -0.000000 0.126814 0.991926
vn 0.000000 0.126814 0.991926
vn 0.000000 0.126814 0.991926
vn 0.000000 0.126814 0.991926
vn 0.000000 0.126814 0.991927
vn 0.000000 0.126814 0.991927
vn 0.000000 0.126814 0.991927
vn 0.000000 0.126814 0.991927
vn 0.000000 0.126814 0.991927
vn 0.000000 0.126814 0.991927
vn 0.000000 0.126814 0.991927
vn 0.000000 0.126814 0.991927
vn 0.000000 0.126814 0.991927
vn 0.000000 0.126814 0.991927
vn 0.000000 0.126814 0.991927
vn 0.000000 0.126814 0.991927
vn 0.000000 0.126814 0.991927
vn 0.000000 0.126814 0.991927
vn 0.000000 0.126814 0.991927
vn 0.000000 0.126813 0.991927
vn 0.000000 0.126813 0.991927
vn 0.000000 0.126813 0.991927
vn 0.000000 -0.126814 -0.991927
vn 0.000000 -0.126814 -0.991927
vn 0.000000 -0.126814 -0.991927
vn 0.000000 -0.126814 -0.991927
vn 0.000000 -0.126814 -0.991927
vn 0.000000 -0.126814 -0.991927
vn 0.000000 -0.126816 -0.991926
vn 0.000000 -0.126816 -0.991926
vn 0.000000 -0.126816 -0.991926
vn 0.000000 -0.126814 -0.991927
vn 0.000000 -0.126814 -0.991927
vn 0.000000 -0.126814 -0.991927
vn 0.000000 -0.126814 -0.991927
vn 0.000000 -0.126814 -0.991927
vn 0.000000 -0.126814 -0.991927
vn 0.000000 -0.126814 -0.991927
vn 0.000000 -0.126814 -0.991927
vn 0.000000 -0.126814 -0.991927
vn 0.000000 -0.126816 -0.991926
vn 0.000000 -0.126816 -0.991926
vn 0.000000 -0.126816 -0.991926
vn 0.000000 -0.126814 -0.991927
vn 0.000000 -0.126814 -0.991927
vn 0.000000 -0.126814 -0.991927
vn 0.000000 -0.126814 -0.991927
vn 0.000000 -0.126814 -0.991927
vn 0.000000 -0.126814 -0.991927
vn -0.000000 -0.126814 -0.991927
vn -0.000000 -0.126814 -0.991927
vn -0.000000 -0.126814 -0.991927
vn 0.000000 -0.126814 -0.991927
vn 0.000000 -0.126814 -0.991927
vn 0.000000 -0.126814 -0.991927
vn 0.000000 -0.126814 -0.991927
vn 0.000000 -0.126814 -0.991927
vn 0.000000 -0.126814 -0.991927
vn 0.000000 -0.126813 -0.991927
vn 0.000000 -0.126813 -0.991927
vn 0.000000 -0.126813 -0.991927
vn -0.707107 -0.701398 0.089671
vn -0.707107 -0.701398 0.089671
vn -0.707107 -0.701398 0.089671
vn -0.707107 -0.701398 0.089671
vn -0.707107 -0.701398 0.089671
vn 0.434440 -0.893429 0.114221
vn 0.434440 -0.893429 0.114221
vn -0.707107 -0.701398 0.089671
vn 0.434440 -0.893429 0.114221
vn 0.434440 -0.893429 0.114222
vn 0.434440 -0.893429 0.114222
vn 0.434440 -0.893429 0.114221
vn 0.434440 -0.893429 0.114222
vn -0.434440 -0.893429 0.114221
vn -0.434440 -0.893429 0.114221
vn 0.434440 -0.893429 0.114222
vn -0.434440 -0.893429 0.114221
vn -0.434440 -0.893429 0.114221
vn -0.434440 -0.893429 0.114221
vn -0.434440 -0.893429 0.114221
vn -0.434440 -0.893429 0.114221
vn 0.707107 -0.701398 0.089670
vn 0.707107 -0.701398 0.089670
vn -0.434440 -0.893429 0.114221
vn 0.707107 -0.701398 0.089670
vn 0.707107 -0.701398 0.089671
vn 0.707107 -0.701398 0.089671
vn 0.707107 -0.701398 0.089670
vn 0.707107 -0.701398 0.089671
vn -0.707107 -0.701398 0.089671
vn -0.707107 -0.701398 0.089671
vn 0.707107 -0.701398 0.089671
vn -0.707107 -0.701398 0.089671
vn -0.707107 0.701398 -0.089671
vn -0.707107 0.701398 -0.089671
vn -0.707107 -0.701398 0.089671
vn -0.707107 0.701398 -0.089671
vn 0.431232 0.894957 -0.114416
vn 0.431232 0.894957 -0.114416
vn -0.707107 0.701398 -0.089671
vn 0.431232 0.894957 -0.114416
vn 0.001079 0.991926 -0.126813
vn 0.001079 0.991926 -0.126813
vn 0.431232 0.894957 -0.114416
vn 0.001079 0.991926 -0.126813
vn -0.430258 0.895418 -0.114475
vn -0.430258 0.895418 -0.114475
vn 0.001079 0.991926 -0.126813
vn -0.430258 0.895418 -0.114475
vn 0.707107 0.701398 -0.089671
vn 0.707107 0.701398 -0.089671
vn -0.430258 0.895418 -0.114475
vn 0.707107 0.701398 -0.089671
vn 0.707107 -0.701398 0.089671
vn 0.707107 -0.701398 0.089671
vn 0.707107 0.701398 -0.089671
vn 0.707107 -0.701398 0.089671
vn -0.707107 -0.701398 0.089671
vn -0.707107 -0.701398 0.089671
vn 0.707107 -0.701398 0.089671
f 1/1/1 2/2/2 3/3/3
f 4/1/4 5/4/5 6/2/6
f 7/4/7 8/5/8 9/2/9
f 10/5/10 11/6/11 12/2/12
f 13/6/13 14/7/14 15/8/15
f 16/6/16 17/9/17 18/7/18
f 19/9/19 20/10/20 21/7/21
f 22/10/22 23/11/23 24/7/24
f 25/1/25 26/12/26 27/4/27
f 28/13/28 29/6/29 30/5/30
f 31/6/31 32/14/32 33/9/33
f 34/15/34 35/11/35 36/10/36
f 37/13/37 38/14/38 39/6/39
f 40/16/40 41/17/41 42/18/42
f 43/16/43 44/18/44 45/19/45
f 46/19/46 47/18/47 48/20/48
f 49/20/49 50/18/50 51/21/51
f 52/21/52 53/22/53 54/23/54
f 55/21/55 56/23/56 57/24/57
f 58/24/58 59/23/59 60/25/60
f 61/25/61 62/23/62 63/26/63
f 64/16/64 65/19/65 66/27/66
f 67/28/67 68/20/68 69/21/69
f 70/21/70 71/24/71 72/29/72
f 73/30/73 74/25/74 75/26/75
f 76/28/76 77/21/77 78/29/78
f 82/34/82 80/32/80 81/33/81
f 80/32/80 82/34/82 79/31/79
f 84/35/84 85/36/85 83/32/83
f 83/32/83 85/36/85 86/33/86
f 89/38/89 90/36/90 87/35/87
f 87/35/87 88/37/88 89/38/89
f 93/40/93 91/37/91 92/39/92
f 91/37/91 93/40/93 94/38/94
f 98/40/98 96/41/96 97/42/97
f 96/41/96 98/40/98 95/39/95
f 100/43/100 101/44/101 99/41/99
f 99/41/99 101/44/101 102/42/102
f 105/46/105 106/44/106 103/43/103
f 103/43/103 104/45/104 105/46/105
f 108/47/108 109/48/109 107/45/107
f 107/45/107 109/48/109 110/46/110
f 114/48/114 112/49/112 113/50/113
f 112/49/112 114/48/114 111/47/111
f 117/52/117 118/50/118 115/49/115
f 117/52/117 115/49/115 116/51/116
f 121/54/121 122/52/122 119/51/119
f 119/51/119 120/53/120 121/54/121
f 126/54/126 124/55/124 125/56/125
f 124/55/124 126/54/126 123/53/123
f 129/58/129 130/56/130 127/55/127
f 129/58/129 127/55/127 128/57/128
f 133/60/133 134/58/134 131/57/131
f 131/57/131 132/59/132 133/60/133
f 136/61/136 137/62/137 135/59/135
f 135/59/135 137/62/137 138/60/138
