# 
# Wavefront OBJ file
# Created with Autodesk FBX SDK
# 
g table_Plane_008
v 22.388202 0.347744 5.794040
v 22.388202 0.695452 5.794040
v 22.425157 0.347743 17.867710
v 18.115972 0.695450 17.624672
v 18.080581 0.976628 6.063449
v 18.080581 0.695452 6.063449
v 22.220005 0.695452 6.050780
v 22.255390 0.976627 17.612001
v 22.255390 0.695451 17.612001
v 22.044336 1.005423 13.737780
v 22.255390 0.976627 17.612001
v 22.010385 0.976628 11.832088
v 17.947774 0.347742 17.881416
v 22.388202 0.347744 5.794040
v 22.425157 0.347743 17.867710
v 22.044374 1.053172 11.936510
v 22.044336 1.005423 13.737780
v 22.010385 0.976628 11.832088
v 17.947774 0.695450 17.881416
v 22.425157 0.347743 17.867710
v 22.425157 0.695451 17.867710
v 22.388202 0.347744 5.794040
v 17.910816 0.695452 5.807743
v 22.388202 0.695452 5.794040
v 17.947771 3.111566 17.881416
v 22.388202 3.111568 5.794040
v 22.425157 3.111567 17.867710
v 17.947771 3.459278 17.881416
v 22.388202 3.459280 5.794041
v 17.910816 3.459280 5.807743
v 17.947771 3.111566 17.881416
v 22.425157 3.459279 17.867710
v 17.947771 3.459278 17.881416
v 22.425157 3.111567 17.867710
v 22.388202 3.459280 5.794041
v 22.425157 3.459279 17.867710
v 17.910816 3.111568 5.807743
v 17.947771 3.459278 17.881416
v 17.910816 3.459280 5.807743
v 22.388202 3.111568 5.794040
v 17.910816 3.459280 5.807743
v 22.388202 3.459280 5.794041
v 18.115972 0.695450 17.624672
v 17.910816 0.695452 5.807743
v 17.947774 0.695450 17.881416
v 22.255390 0.695451 17.612001
v 17.947774 0.695450 17.881416
v 22.425157 0.695451 17.867710
v 22.220005 0.695452 6.050780
v 22.425157 0.695451 17.867710
v 22.388202 0.695452 5.794040
v 18.080581 0.695452 6.063449
v 22.388202 0.695452 5.794040
v 17.910816 0.695452 5.807743
v 22.220005 0.695452 6.050780
v 18.080581 0.976628 6.063449
v 22.220005 0.976628 6.050780
v 18.115972 0.695450 17.624672
v 22.255390 0.976627 17.612001
v 18.115972 0.976626 17.624672
v 18.331630 0.976627 13.816738
v 22.046010 3.079487 13.737178
v 18.331630 3.125039 13.816739
v 17.910816 0.347744 5.807743
v 17.947774 0.695450 17.881416
v 17.910816 0.695452 5.807743
v 18.331630 0.976627 13.816738
v 18.080581 0.976628 6.063449
v 18.115972 0.976626 17.624672
v 22.425157 0.347743 17.867710
v 22.388202 0.695452 5.794040
v 22.425157 0.695451 17.867710
v 22.220005 0.695452 6.050780
v 22.220005 0.976628 6.050780
v 22.255390 0.976627 17.612001
v 22.255390 0.976627 17.612001
v 18.331630 0.976627 13.816738
v 18.115972 0.976626 17.624672
v 18.319551 0.976628 9.869995
v 22.220005 0.976628 6.050780
v 18.080581 0.976628 6.063449
v 18.319551 3.125040 9.869996
v 22.010385 3.125040 11.832088
v 22.004343 3.125040 9.858716
v 22.004343 0.976628 9.858716
v 18.319551 3.125040 9.869996
v 22.004343 3.125040 9.858716
v 22.005392 2.992291 13.621389
v 22.044336 1.005423 13.737780
v 21.994316 1.090783 13.621315
v 22.043582 3.056463 11.956349
v 22.005392 2.992291 13.621389
v 21.989406 3.010884 12.016369
v 18.319551 0.976628 9.869995
v 18.331630 3.125039 13.816739
v 18.319551 3.125040 9.869996
v 22.220005 0.976628 6.050780
v 22.010385 0.976628 11.832088
v 22.255390 0.976627 17.612001
v 22.046010 3.079487 13.737178
v 22.010385 3.125040 11.832088
v 18.331630 3.125039 13.816739
v 22.004343 0.976628 9.858716
v 22.042972 1.061100 11.685777
v 22.010385 0.976628 11.832088
v 18.115972 0.695450 17.624672
v 18.115972 0.976626 17.624672
v 18.080581 0.976628 6.063449
v 22.010385 3.125040 11.832088
v 22.038698 3.039748 9.997402
v 22.004343 3.125040 9.858716
v 22.004343 3.125040 9.858716
v 22.037191 1.073288 9.996032
v 22.004343 0.976628 9.858716
v 22.010385 0.976628 11.832088
v 22.043029 3.028160 11.704506
v 22.010385 3.125040 11.832088
v 22.010385 3.125040 11.832088
v 22.044374 1.053172 11.936510
v 22.010385 0.976628 11.832088
v 22.043582 3.056463 11.956349
v 22.010385 3.125040 11.832088
v 22.046010 3.079487 13.737178
v 21.999294 2.979880 11.629280
v 21.994499 1.121792 10.061584
v 21.983421 2.998468 10.061729
v 22.005392 2.992291 13.621389
v 22.000478 1.109375 12.016223
v 21.989406 3.010884 12.016369
v 21.994499 1.121792 10.061584
v 22.038698 3.039748 9.997402
v 21.983421 2.998468 10.061729
v 22.042972 1.061100 11.685777
v 21.994499 1.121792 10.061584
v 21.988220 1.103199 11.629202
v 22.000478 1.109375 12.016223
v 22.043582 3.056463 11.956349
v 21.989406 3.010884 12.016369
v 21.994316 1.090783 13.621315
v 22.044374 1.053172 11.936510
v 22.000478 1.109375 12.016223
v 21.999294 2.979880 11.629280
v 22.042972 1.061100 11.685777
v 21.988220 1.103199 11.629202
v 22.038698 3.039748 9.997402
v 21.999294 2.979880 11.629280
v 21.983421 2.998468 10.061729
v 17.947774 0.347742 17.881416
v 17.910816 0.347744 5.807743
v 22.388202 0.347744 5.794040
v 17.947774 0.695450 17.881416
v 17.947774 0.347742 17.881416
v 22.425157 0.347743 17.867710
v 22.388202 0.347744 5.794040
v 17.910816 0.347744 5.807743
v 17.910816 0.695452 5.807743
v 17.947771 3.111566 17.881416
v 17.910816 3.111568 5.807743
v 22.388202 3.111568 5.794040
v 17.947771 3.459278 17.881416
v 22.425157 3.459279 17.867710
v 22.388202 3.459280 5.794041
v 17.947771 3.111566 17.881416
v 22.425157 3.111567 17.867710
v 22.425157 3.459279 17.867710
v 22.425157 3.111567 17.867710
v 22.388202 3.111568 5.794040
v 22.388202 3.459280 5.794041
v 17.910816 3.111568 5.807743
v 17.947771 3.111566 17.881416
v 17.947771 3.459278 17.881416
v 22.388202 3.111568 5.794040
v 17.910816 3.111568 5.807743
v 17.910816 3.459280 5.807743
v 18.115972 0.695450 17.624672
v 18.080581 0.695452 6.063449
v 17.910816 0.695452 5.807743
v 22.255390 0.695451 17.612001
v 18.115972 0.695450 17.624672
v 17.947774 0.695450 17.881416
v 22.220005 0.695452 6.050780
v 22.255390 0.695451 17.612001
v 22.425157 0.695451 17.867710
v 18.080581 0.695452 6.063449
v 22.220005 0.695452 6.050780
v 22.388202 0.695452 5.794040
v 22.220005 0.695452 6.050780
v 18.080581 0.695452 6.063449
v 18.080581 0.976628 6.063449
v 18.115972 0.695450 17.624672
v 22.255390 0.695451 17.612001
v 22.255390 0.976627 17.612001
v 18.331630 0.976627 13.816738
v 22.044336 1.005423 13.737780
v 22.046010 3.079487 13.737178
v 17.910816 0.347744 5.807743
v 17.947774 0.347742 17.881416
v 17.947774 0.695450 17.881416
v 18.331630 0.976627 13.816738
v 18.319551 0.976628 9.869995
v 18.080581 0.976628 6.063449
v 22.255390 0.976627 17.612001
v 22.044336 1.005423 13.737780
v 18.331630 0.976627 13.816738
v 18.319551 0.976628 9.869995
v 22.004343 0.976628 9.858716
v 22.220005 0.976628 6.050780
v 18.319551 3.125040 9.869996
v 18.331630 3.125039 13.816739
v 22.010385 3.125040 11.832088
v 22.004343 0.976628 9.858716
v 18.319551 0.976628 9.869995
v 18.319551 3.125040 9.869996
v 22.005392 2.992291 13.621389
v 22.046010 3.079487 13.737178
v 22.044336 1.005423 13.737780
v 22.043582 3.056463 11.956349
v 22.046010 3.079487 13.737178
v 22.005392 2.992291 13.621389
v 18.319551 0.976628 9.869995
v 18.331630 0.976627 13.816738
v 18.331630 3.125039 13.816739
v 22.220005 0.976628 6.050780
v 22.004343 0.976628 9.858716
v 22.010385 0.976628 11.832088
v 22.004343 0.976628 9.858716
v 22.037191 1.073288 9.996032
v 22.042972 1.061100 11.685777
v 22.010385 3.125040 11.832088
v 22.043029 3.028160 11.704506
v 22.038698 3.039748 9.997402
v 22.004343 3.125040 9.858716
v 22.038698 3.039748 9.997402
v 22.037191 1.073288 9.996032
v 22.010385 0.976628 11.832088
v 22.042972 1.061100 11.685777
v 22.043029 3.028160 11.704506
v 22.010385 3.125040 11.832088
v 22.043582 3.056463 11.956349
v 22.044374 1.053172 11.936510
v 21.999294 2.979880 11.629280
v 21.988220 1.103199 11.629202
v 21.994499 1.121792 10.061584
v 22.005392 2.992291 13.621389
v 21.994316 1.090783 13.621315
v 22.000478 1.109375 12.016223
v 21.994499 1.121792 10.061584
v 22.037191 1.073288 9.996032
v 22.038698 3.039748 9.997402
v 22.042972 1.061100 11.685777
v 22.037191 1.073288 9.996032
v 21.994499 1.121792 10.061584
v 22.000478 1.109375 12.016223
v 22.044374 1.053172 11.936510
v 22.043582 3.056463 11.956349
v 21.994316 1.090783 13.621315
v 22.044336 1.005423 13.737780
v 22.044374 1.053172 11.936510
v 21.999294 2.979880 11.629280
v 22.043029 3.028160 11.704506
v 22.042972 1.061100 11.685777
v 22.038698 3.039748 9.997402
v 22.043029 3.028160 11.704506
v 21.999294 2.979880 11.629280
vt 1.000000 1.000000
vt 1.000000 1.000000
vt 1.000000 0.000000
vt 0.021222 0.021222
vt 0.021222 0.978778
vt 0.021222 0.978778
vt 0.978778 0.978778
vt 0.978778 0.021222
vt 0.978778 0.021222
vt 0.958043 0.362525
vt 0.958043 0.500000
vt 0.000000 0.000000
vt 0.958043 0.492073
vt 0.000000 0.000000
vt 1.000000 0.000000
vt 0.000000 1.000000
vt 0.000000 0.000000
vt 1.000000 1.000000
vt 1.000000 0.000000
vt 0.000000 0.000000
vt 1.000000 1.000000
vt 0.000000 1.000000
vt 1.000000 0.000000
vt 0.000000 1.000000
vt 0.978778 0.978778
vt 0.021222 0.021222
vt 0.041957 0.357822
vt 0.958043 0.363379
vt 0.041957 0.357822
vt 0.000000 1.000000
vt 0.041957 0.642178
vt 0.041957 0.642178
vt 0.958043 0.500000
vt 0.958043 0.642178
vt 0.958043 0.642178
vt 0.958043 0.372939
vt 0.958043 0.371596
vt 0.958043 0.491792
vt 0.958043 0.486227
vt 0.958043 0.509860
vt 0.958043 0.632541
vt 0.958043 0.631972
vt 0.958043 0.509860
vt 0.958043 0.516466
vt 0.958043 0.625711
vt 0.958043 0.627055
vt 0.958043 0.484884
vt 0.958043 0.515123
vn 0.999995 0.000000 -0.003061
vn 0.999995 0.000000 -0.003061
vn 0.999995 0.000000 -0.003061
vn -0.999995 0.000000 0.003061
vn -0.999995 0.000000 0.003061
vn -0.999995 0.000000 0.003061
vn 0.999995 0.000000 -0.003061
vn 0.999995 0.000000 -0.003061
vn 0.999995 0.000000 -0.003061
vn 0.523659 0.851639 -0.022197
vn 0.523659 0.851639 -0.022197
vn 0.523659 0.851639 -0.022197
vn 0.000000 -1.000000 -0.000000
vn 0.000000 -1.000000 -0.000000
vn 0.000000 -1.000000 -0.000000
vn 0.919097 -0.393893 -0.010422
vn 0.919097 -0.393893 -0.010422
vn 0.919097 -0.393893 -0.010422
vn 0.003061 0.000000 0.999995
vn 0.003061 0.000000 0.999995
vn 0.003061 0.000000 0.999995
vn -0.003060 0.000000 -0.999995
vn -0.003060 0.000000 -0.999995
vn -0.003060 0.000000 -0.999995
vn 0.000000 -1.000000 -0.000000
vn 0.000000 -1.000000 -0.000000
vn 0.000000 -1.000000 -0.000000
vn -0.000000 1.000000 0.000000
vn -0.000000 1.000000 0.000000
vn 0.000000 1.000000 0.000000
vn 0.003061 0.000000 0.999995
vn 0.003061 0.000000 0.999995
vn 0.003061 0.000000 0.999995
vn 0.999995 -0.000000 -0.003061
vn 0.999995 -0.000010 -0.003061
vn 0.999995 0.000000 -0.003061
vn -0.999995 0.000000 0.003061
vn -0.999995 0.000000 0.003061
vn -0.999995 0.000000 0.003061
vn -0.003060 0.000003 -0.999995
vn -0.003060 0.000000 -0.999995
vn -0.003060 0.000003 -0.999995
vn 0.000000 1.000000 -0.000000
vn -0.000000 1.000000 0.000000
vn -0.000000 1.000000 -0.000000
vn -0.000000 1.000000 0.000000
vn -0.000000 1.000000 -0.000000
vn -0.000000 1.000000 0.000000
vn 0.000000 1.000000 0.000000
vn -0.000000 1.000000 0.000000
vn 0.000000 1.000000 0.000000
vn -0.000000 1.000000 0.000000
vn 0.000000 1.000000 0.000000
vn -0.000000 1.000000 0.000000
vn -0.003061 0.000000 -0.999995
vn -0.003060 0.000000 -0.999995
vn -0.003061 0.000000 -0.999995
vn 0.003061 0.000000 0.999995
vn 0.003060 0.000000 0.999995
vn 0.003062 0.000000 0.999995
vn 0.021365 0.000088 0.999772
vn 0.021311 0.000182 0.999773
vn 0.021415 -0.000000 0.999771
vn -0.999995 0.000000 0.003061
vn -0.999995 0.000000 0.003061
vn -0.999995 0.000000 0.003061
vn -0.004576 0.999978 0.004776
vn -0.000000 1.000000 0.000000
vn -0.000000 1.000000 0.000000
vn 0.999995 0.000000 -0.003061
vn 0.999995 0.000000 -0.003061
vn 0.999995 0.000000 -0.003061
vn 0.999995 0.000000 -0.003061
vn 0.999995 0.000000 -0.003061
vn 0.999995 0.000000 -0.003061
vn -0.003734 0.999986 0.003861
vn -0.004576 0.999978 0.004776
vn -0.000000 1.000000 0.000000
vn -0.000003 1.000000 0.000000
vn 0.000000 1.000000 -0.000000
vn -0.000000 1.000000 0.000000
vn -0.000000 1.000000 0.000000
vn -0.000000 1.000000 0.000000
vn 0.000000 1.000000 0.000000
vn -0.003061 0.000000 -0.999995
vn -0.003061 0.000000 -0.999995
vn -0.003061 0.000000 -0.999995
vn 0.917405 -0.005329 -0.397919
vn 0.917405 -0.005329 -0.397919
vn 0.917405 -0.005329 -0.397919
vn 0.633743 -0.773393 -0.015271
vn 0.633743 -0.773393 -0.015271
vn 0.633743 -0.773393 -0.015271
vn -0.999995 -0.000000 0.003061
vn -0.999995 -0.000000 0.003061
vn -0.999995 0.000000 0.003061
vn 0.000000 1.000000 -0.000000
vn 0.000002 1.000000 0.000000
vn 0.000002 1.000000 0.000000
vn 0.012766 0.999638 0.023664
vn 0.012766 0.999638 0.023664
vn 0.012766 0.999638 0.023664
vn 0.931301 -0.364239 -0.002852
vn 0.931301 -0.364239 -0.002852
vn 0.931301 -0.364239 -0.002852
vn -0.999995 0.000000 0.003061
vn -0.999995 0.000000 0.003061
vn -0.999995 0.000000 0.003061
vn 0.929177 0.369624 -0.002845
vn 0.929177 0.369624 -0.002845
vn 0.929177 0.369624 -0.002845
vn 0.972020 -0.000199 -0.234900
vn 0.971167 -0.000400 -0.238399
vn 0.972560 0.000000 -0.232654
vn 0.968790 0.000000 0.247882
vn 0.968790 0.000000 0.247882
vn 0.968790 0.000000 0.247882
vn 0.950894 0.000000 -0.309517
vn 0.950894 0.000000 -0.309517
vn 0.950894 0.000000 -0.309517
vn 0.904802 0.425778 -0.006739
vn 0.904802 0.425778 -0.006739
vn 0.904802 0.425778 -0.006739
vn 0.999932 0.005903 -0.010055
vn 0.999932 0.005903 -0.010055
vn 0.999932 0.005903 -0.010055
vn 0.999934 0.005826 -0.009892
vn 0.999934 0.005826 -0.009892
vn 0.999934 0.005826 -0.009892
vn 0.757036 0.004418 0.653358
vn 0.757036 0.004418 0.653358
vn 0.757036 0.004418 0.653358
vn 0.601742 0.798602 0.011882
vn 0.601742 0.798602 0.011882
vn 0.601742 0.798602 0.011882
vn 0.740703 0.004261 0.671819
vn 0.740703 0.004261 0.671819
vn 0.740703 0.004261 0.671819
vn 0.794976 0.606557 0.010079
vn 0.794976 0.606557 0.010079
vn 0.794976 0.606557 0.010079
vn 0.717021 -0.004202 -0.697039
vn 0.717021 -0.004202 -0.697039
vn 0.717021 -0.004202 -0.697039
vn 0.586610 -0.809721 -0.015542
vn 0.586610 -0.809721 -0.015542
vn 0.586610 -0.809721 -0.015542
vn 0.000000 -1.000000 -0.000000
vn -0.000000 -1.000000 -0.000000
vn 0.000000 -1.000000 -0.000000
vn 0.003061 0.000000 0.999995
vn 0.003061 0.000000 0.999995
vn 0.003061 0.000000 0.999995
vn -0.003060 0.000000 -0.999995
vn -0.003060 0.000000 -0.999995
vn -0.003060 0.000000 -0.999995
vn 0.000000 -1.000000 -0.000000
vn -0.000000 -1.000000 -0.000000
vn 0.000000 -1.000000 -0.000000
vn -0.000000 1.000000 0.000000
vn -0.000000 1.000000 0.000000
vn -0.000000 1.000000 0.000000
vn 0.003061 0.000000 0.999995
vn 0.003061 0.000000 0.999995
vn 0.003061 0.000000 0.999995
vn 0.999995 -0.000000 -0.003061
vn 0.999995 -0.000010 -0.003061
vn 0.999995 -0.000010 -0.003061
vn -0.999995 0.000000 0.003061
vn -0.999995 0.000000 0.003061
vn -0.999995 0.000000 0.003061
vn -0.003060 0.000003 -0.999995
vn -0.003060 0.000000 -0.999995
vn -0.003060 0.000000 -0.999995
vn 0.000000 1.000000 -0.000000
vn -0.000000 1.000000 0.000000
vn -0.000000 1.000000 0.000000
vn -0.000000 1.000000 0.000000
vn 0.000000 1.000000 -0.000000
vn -0.000000 1.000000 -0.000000
vn 0.000000 1.000000 0.000000
vn -0.000000 1.000000 0.000000
vn -0.000000 1.000000 0.000000
vn -0.000000 1.000000 0.000000
vn 0.000000 1.000000 0.000000
vn 0.000000 1.000000 0.000000
vn -0.003061 0.000000 -0.999995
vn -0.003060 0.000000 -0.999995
vn -0.003060 0.000000 -0.999995
vn 0.003061 0.000000 0.999995
vn 0.003060 0.000000 0.999995
vn 0.003060 0.000000 0.999995
vn 0.021365 0.000088 0.999772
vn 0.021259 0.000273 0.999774
vn 0.021311 0.000182 0.999773
vn -0.999995 0.000000 0.003061
vn -0.999995 0.000000 0.003061
vn -0.999995 0.000000 0.003061
vn -0.004576 0.999978 0.004776
vn -0.000003 1.000000 0.000000
vn -0.000000 1.000000 0.000000
vn -0.003734 0.999986 0.003861
vn -0.007589 0.999940 0.007846
vn -0.004576 0.999978 0.004776
vn -0.000003 1.000000 0.000000
vn 0.000000 1.000000 0.000000
vn 0.000000 1.000000 -0.000000
vn -0.000000 1.000000 0.000000
vn -0.000000 1.000000 0.000000
vn -0.000000 1.000000 0.000000
vn -0.003061 0.000000 -0.999995
vn -0.003060 0.000000 -0.999995
vn -0.003061 0.000000 -0.999995
vn 0.943826 -0.000858 -0.330442
vn 0.943826 -0.000858 -0.330442
vn 0.943826 -0.000858 -0.330442
vn 0.904271 -0.426938 0.004287
vn 0.904271 -0.426938 0.004287
vn 0.904271 -0.426938 0.004287
vn -0.999995 -0.000000 0.003061
vn -0.999995 -0.000001 0.003061
vn -0.999995 -0.000000 0.003061
vn 0.000000 1.000000 -0.000000
vn 0.000000 1.000000 0.000000
vn 0.000002 1.000000 0.000000
vn 0.949183 -0.314676 -0.005518
vn 0.949183 -0.314676 -0.005518
vn 0.949183 -0.314676 -0.005518
vn 0.947564 0.319566 -0.000235
vn 0.947564 0.319566 -0.000235
vn 0.947564 0.319566 -0.000235
vn 0.972020 -0.000199 -0.234900
vn 0.970579 -0.000575 -0.240784
vn 0.971167 -0.000400 -0.238399
vn 0.976335 -0.002085 0.216253
vn 0.976335 -0.002085 0.216253
vn 0.976335 -0.002085 0.216253
vn 0.966516 0.002923 -0.256590
vn 0.966516 0.002923 -0.256590
vn 0.966516 0.002923 -0.256590
vn 0.999975 -0.005902 0.003935
vn 0.999975 -0.005902 0.003935
vn 0.999975 -0.005902 0.003935
vn 0.999976 -0.005824 0.003772
vn 0.999976 -0.005824 0.003772
vn 0.999976 -0.005824 0.003772
vn 0.837607 -0.001020 0.546272
vn 0.837607 -0.001020 0.546272
vn 0.837607 -0.001020 0.546272
vn 0.752118 0.659025 0.002181
vn 0.752118 0.659025 0.002181
vn 0.752118 0.659025 0.002181
vn 0.874618 -0.004456 0.484793
vn 0.874618 -0.004456 0.484793
vn 0.874618 -0.004456 0.484793
vn 0.854381 0.519465 0.013789
vn 0.854381 0.519465 0.013789
vn 0.854381 0.519465 0.013789
vn 0.863161 0.004782 -0.504907
vn 0.863161 0.004782 -0.504907
vn 0.863161 0.004782 -0.504907
vn 0.746116 -0.665785 -0.006413
vn 0.746116 -0.665785 -0.006413
vn 0.746116 -0.665785 -0.006413
f 1/1/1 2/2/2 3/3/3
f 4/4/4 5/5/5 6/6/6
f 7/7/7 8/8/8 9/9/9
f 10/10/10 11/8/11 12/11/12
f 13/12/13 14/1/14 15/3/15
f 16/13/16 17/10/17 18/11/18
f 19/14/19 20/3/20 21/15/21
f 22/1/22 23/16/23 24/2/24
f 25/17/25 26/18/26 27/19/27
f 28/20/28 29/21/29 30/22/30
f 31/17/31 32/23/32 33/20/33
f 34/19/34 35/21/35 36/23/36
f 37/24/37 38/20/38 39/22/39
f 40/18/40 41/22/41 42/21/42
f 43/4/43 44/16/44 45/14/45
f 46/9/46 47/14/47 48/15/48
f 49/7/49 50/15/50 51/2/51
f 52/6/52 53/2/53 54/16/54
f 55/7/55 56/5/56 57/25/57
f 58/4/58 59/8/59 60/26/60
f 61/27/61 62/28/62 63/29/63
f 64/30/64 65/14/65 66/16/66
f 67/27/67 68/5/68 69/26/69
f 70/3/70 71/2/71 72/15/72
f 73/7/73 74/25/74 75/8/75
f 76/8/76 77/27/77 78/26/78
f 79/31/79 80/25/80 81/5/81
f 82/32/82 83/33/83 84/34/84
f 85/35/85 86/32/86 87/34/87
f 88/36/88 89/10/89 90/37/90
f 91/38/91 92/36/92 93/39/93
f 94/31/94 95/29/95 96/32/96
f 97/25/97 98/11/98 99/8/99
f 100/28/100 101/33/101 102/29/102
f 103/35/103 104/40/104 105/11/105
f 106/4/106 107/26/107 108/5/108
f 109/33/109 110/41/110 111/34/111
f 112/34/112 113/42/113 114/35/114
f 115/11/115 116/43/116 117/33/117
f 118/33/118 119/13/119 120/11/120
f 121/38/121 122/33/122 123/28/123
f 124/44/124 125/45/125 126/46/126
f 127/36/127 128/47/128 129/39/129
f 130/45/130 131/41/131 132/46/132
f 133/40/133 134/45/134 135/48/135
f 136/47/136 137/38/137 138/39/138
f 139/37/139 140/13/140 141/47/141
f 142/44/142 143/40/143 144/48/144
f 145/41/145 146/44/146 147/46/147
f 148/12/148 149/30/149 150/1/150
f 151/14/151 152/12/152 153/3/153
f 154/1/154 155/30/155 156/16/156
f 157/17/157 158/24/158 159/18/159
f 160/20/160 161/23/161 162/21/162
f 163/17/163 164/19/164 165/23/165
f 166/19/166 167/18/167 168/21/168
f 169/24/169 170/17/170 171/20/171
f 172/18/172 173/24/173 174/22/174
f 175/4/175 176/6/176 177/16/177
f 178/9/178 179/4/179 180/14/180
f 181/7/181 182/9/182 183/15/183
f 184/6/184 185/7/185 186/2/186
f 187/7/187 188/6/188 189/5/189
f 190/4/190 191/9/191 192/8/192
f 193/27/193 194/10/194 195/28/195
f 196/30/196 197/12/197 198/14/198
f 199/27/199 200/31/200 201/5/201
f 202/8/202 203/10/203 204/27/204
f 205/31/205 206/35/206 207/25/207
f 208/32/208 209/29/209 210/33/210
f 211/35/211 212/31/212 213/32/213
f 214/36/214 215/28/215 216/10/216
f 217/38/217 218/28/218 219/36/219
f 220/31/220 221/27/221 222/29/222
f 223/25/223 224/35/224 225/11/225
f 226/35/226 227/42/227 228/40/228
f 229/33/229 230/43/230 231/41/231
f 232/34/232 233/41/233 234/42/234
f 235/11/235 236/40/236 237/43/237
f 238/33/238 239/38/239 240/13/240
f 241/44/241 242/48/242 243/45/243
f 244/36/244 245/37/245 246/47/246
f 247/45/247 248/42/248 249/41/249
f 250/40/250 251/42/251 252/45/252
f 253/47/253 254/13/254 255/38/255
f 256/37/256 257/10/257 258/13/258
f 259/44/259 260/43/260 261/40/261
f 262/41/262 263/43/263 264/44/264
